<?xml version="1.0" encoding="UTF-8" standalone="no"?>
<!-- Created with Inkscape (http://www.inkscape.org/) -->

<svg
   xmlns:dc="http://purl.org/dc/elements/1.1/"
   xmlns:cc="http://creativecommons.org/ns#"
   xmlns:rdf="http://www.w3.org/1999/02/22-rdf-syntax-ns#"
   xmlns:svg="http://www.w3.org/2000/svg"
   xmlns="http://www.w3.org/2000/svg"
   xmlns:sodipodi="http://sodipodi.sourceforge.net/DTD/sodipodi-0.dtd"
   xmlns:inkscape="http://www.inkscape.org/namespaces/inkscape"
   width="210mm"
   height="297mm"
   viewBox="0 0 210 297"
   version="1.1"
   id="svg1502"
   inkscape:version="0.92.4 (5da689c313, 2019-01-14)"
   sodipodi:docname="bamboo.svg">
  <defs
     id="defs1496" />
  <sodipodi:namedview
     id="base"
     pagecolor="#ffffff"
     bordercolor="#666666"
     borderopacity="1.0"
     inkscape:pageopacity="0.0"
     inkscape:pageshadow="2"
     inkscape:zoom="0.47"
     inkscape:cx="1587.4807"
     inkscape:cy="-2133.2993"
     inkscape:document-units="mm"
     inkscape:current-layer="layer1"
     showgrid="false"
     inkscape:snap-global="false"
     inkscape:window-width="1855"
     inkscape:window-height="1177"
     inkscape:window-x="57"
     inkscape:window-y="-8"
     inkscape:window-maximized="1" />
  <metadata
     id="metadata1499">
    <rdf:RDF>
      <cc:Work
         rdf:about="">
        <dc:format>image/svg+xml</dc:format>
        <dc:type
           rdf:resource="http://purl.org/dc/dcmitype/StillImage" />
        <dc:title />
      </cc:Work>
    </rdf:RDF>
  </metadata>
  <g
     inkscape:label="Layer 1"
     inkscape:groupmode="layer"
     id="layer1">
    <g
       id="g2089"
       transform="matrix(0.84728317,0,0,0.9916925,256.56514,186.84278)"
       style="stroke:none"
       inkscape:export-xdpi="21"
       inkscape:export-ydpi="21">
      <path
         inkscape:connector-curvature="0"
         id="path2055"
         d="m -206.27701,40.746138 c 0,0 5.87963,58.79629 -0.48997,98.973772 0,0 10.77932,-6.3696 20.08873,-0.48997"
         style="fill:#ffffff;stroke:none;stroke-width:0.26458332px;stroke-linecap:butt;stroke-linejoin:miter;stroke-opacity:1" />
      <path
         inkscape:connector-curvature="0"
         id="path2057"
         d="m -186.67825,139.75909 c 0,0 -9.30941,-78.885025 -1.4699,-97.993815 0,0 -6.85957,3.91975 -18.12886,0.48997"
         style="fill:#ffffff;stroke:none;stroke-width:0.26458332px;stroke-linecap:butt;stroke-linejoin:miter;stroke-opacity:1" />
      <path
         style="fill:#ffffff;stroke:none;stroke-width:0.26458332px;stroke-linecap:butt;stroke-linejoin:miter;stroke-opacity:1"
         d="m -206.27701,40.746138 c 0,0 5.87963,58.79629 -0.48997,98.973772 0,0 10.77932,-6.3696 20.08873,-0.48997"
         id="path2081"
         inkscape:connector-curvature="0" />
      <path
         style="fill:#ffffff;stroke:none;stroke-width:0.26458332px;stroke-linecap:butt;stroke-linejoin:miter;stroke-opacity:1"
         d="m -186.67825,139.75909 c 0,0 -9.30941,-78.885025 -1.4699,-97.993815 0,0 -6.85957,3.91975 -18.12886,0.48997"
         id="path2083"
         inkscape:connector-curvature="0" />
    </g>
    <g
       transform="matrix(0.46230537,0.51308507,0.43090349,-0.42275036,162.89691,332.38723)"
       id="g2127"
       style="stroke:none"
       inkscape:export-xdpi="21"
       inkscape:export-ydpi="21">
      <path
         inkscape:connector-curvature="0"
         id="path2119"
         d="m -206.27701,40.746138 c 0,0 5.87963,58.79629 -0.48997,98.973772 0,0 10.77932,-6.3696 20.08873,-0.48997"
         style="fill:#ffffff;stroke:none;stroke-width:0.26458332px;stroke-linecap:butt;stroke-linejoin:miter;stroke-opacity:1" />
      <path
         inkscape:connector-curvature="0"
         id="path2121"
         d="m -186.67825,139.75909 c 0,0 -9.30941,-78.885025 -1.4699,-97.993815 0,0 -6.85957,3.91975 -18.12886,0.48997"
         style="fill:#ffffff;stroke:none;stroke-width:0.26458332px;stroke-linecap:butt;stroke-linejoin:miter;stroke-opacity:1" />
      <path
         style="fill:#ffffff;stroke:none;stroke-width:0.26458332px;stroke-linecap:butt;stroke-linejoin:miter;stroke-opacity:1"
         d="m -206.27701,40.746138 c 0,0 5.87963,58.79629 -0.48997,98.973772 0,0 10.77932,-6.3696 20.08873,-0.48997"
         id="path2123"
         inkscape:connector-curvature="0" />
      <path
         style="fill:#ffffff;stroke:none;stroke-width:0.26458332px;stroke-linecap:butt;stroke-linejoin:miter;stroke-opacity:1"
         d="m -186.67825,139.75909 c 0,0 -9.30941,-78.885025 -1.4699,-97.993815 0,0 -6.85957,3.91975 -18.12886,0.48997"
         id="path2125"
         inkscape:connector-curvature="0" />
    </g>
    <g
       id="g2099"
       transform="matrix(0.81793323,0.04869554,-0.06028874,1.0126629,259.12036,93.581583)"
       style="stroke:none"
       inkscape:export-xdpi="21"
       inkscape:export-ydpi="21">
      <path
         style="fill:#ffffff;stroke:none;stroke-width:0.26458332px;stroke-linecap:butt;stroke-linejoin:miter;stroke-opacity:1"
         d="m -206.27701,40.746138 c 0,0 5.87963,58.79629 -0.48997,98.973772 0,0 10.77932,-6.3696 20.08873,-0.48997"
         id="path2091"
         inkscape:connector-curvature="0" />
      <path
         style="fill:#ffffff;stroke:none;stroke-width:0.26458332px;stroke-linecap:butt;stroke-linejoin:miter;stroke-opacity:1"
         d="m -186.67825,139.75909 c 0,0 -9.30941,-78.885025 -1.4699,-97.993815 0,0 -6.85957,3.91975 -18.12886,0.48997"
         id="path2093"
         inkscape:connector-curvature="0" />
      <path
         inkscape:connector-curvature="0"
         id="path2095"
         d="m -206.27701,40.746138 c 0,0 5.87963,58.79629 -0.48997,98.973772 0,0 10.77932,-6.3696 20.08873,-0.48997"
         style="fill:#ffffff;stroke:none;stroke-width:0.26458332px;stroke-linecap:butt;stroke-linejoin:miter;stroke-opacity:1" />
      <path
         inkscape:connector-curvature="0"
         id="path2097"
         d="m -186.67825,139.75909 c 0,0 -9.30941,-78.885025 -1.4699,-97.993815 0,0 -6.85957,3.91975 -18.12886,0.48997"
         style="fill:#ffffff;stroke:none;stroke-width:0.26458332px;stroke-linecap:butt;stroke-linejoin:miter;stroke-opacity:1" />
    </g>
    <g
       transform="matrix(0.81793323,0.04869554,-0.06028874,1.0126629,265.03127,-8.5926182)"
       id="g2109"
       style="stroke:none"
       inkscape:export-xdpi="21"
       inkscape:export-ydpi="21">
      <path
         inkscape:connector-curvature="0"
         id="path2101"
         d="m -206.27701,40.746138 c 0,0 5.87963,58.79629 -0.48997,98.973772 0,0 10.77932,-6.3696 20.08873,-0.48997"
         style="fill:#ffffff;stroke:none;stroke-width:0.26458332px;stroke-linecap:butt;stroke-linejoin:miter;stroke-opacity:1" />
      <path
         inkscape:connector-curvature="0"
         id="path2103"
         d="m -186.67825,139.75909 c 0,0 -9.30941,-78.885025 -1.4699,-97.993815 0,0 -6.85957,3.91975 -18.12886,0.48997"
         style="fill:#ffffff;stroke:none;stroke-width:0.26458332px;stroke-linecap:butt;stroke-linejoin:miter;stroke-opacity:1" />
      <path
         style="fill:#ffffff;stroke:none;stroke-width:0.26458332px;stroke-linecap:butt;stroke-linejoin:miter;stroke-opacity:1"
         d="m -206.27701,40.746138 c 0,0 5.87963,58.79629 -0.48997,98.973772 0,0 10.77932,-6.3696 20.08873,-0.48997"
         id="path2105"
         inkscape:connector-curvature="0" />
      <path
         style="fill:#ffffff;stroke:none;stroke-width:0.26458332px;stroke-linecap:butt;stroke-linejoin:miter;stroke-opacity:1"
         d="m -186.67825,139.75909 c 0,0 -9.30941,-78.885025 -1.4699,-97.993815 0,0 -6.85957,3.91975 -18.12886,0.48997"
         id="path2107"
         inkscape:connector-curvature="0" />
    </g>
    <path
       style="fill:#ffffff;stroke:none;stroke-width:0.26458332px;stroke-linecap:butt;stroke-linejoin:miter;stroke-opacity:1"
       d="m 98.23359,249.71276 c 0,0 1.97031,-20.26595 42.50222,-32.08776 0,0 -9.85151,30.68041 -41.09486,34.33954 0,0 17.45124,-9.85151 32.93218,-27.02128 0,0 -7.59973,0.84441 -34.33954,24.7695 z"
       id="path2113"
       inkscape:connector-curvature="0"
       inkscape:export-xdpi="21"
       inkscape:export-ydpi="21" />
    <path
       inkscape:connector-curvature="0"
       id="path2115"
       d="m 108.36657,101.37721 c 0,0 1.97031,-20.265953 42.50222,-32.087758 0,0 -9.85151,30.680406 -41.09486,34.339538 0,0 17.45124,-9.851508 32.93218,-27.021273 0,0 -7.59973,0.84441 -34.33954,24.769493 z"
       style="fill:#ffffff;stroke:none;stroke-width:0.26458332px;stroke-linecap:butt;stroke-linejoin:miter;stroke-opacity:1"
       inkscape:export-xdpi="21"
       inkscape:export-ydpi="21" />
    <path
       style="fill:#ffffff;stroke:none;stroke-width:0.26458332px;stroke-linecap:butt;stroke-linejoin:miter;stroke-opacity:1"
       d="m 83.63471,176.24867 c 0,0 -1.97031,-20.26596 -42.50222,-32.08777 0,0 9.85151,30.68041 41.09486,34.33954 0,0 -17.45124,-9.8515 -32.93218,-27.02127 0,0 7.59973,0.84441 34.33954,24.7695 z"
       id="path2117"
       inkscape:connector-curvature="0"
       inkscape:export-xdpi="21"
       inkscape:export-ydpi="21" />
    <g
       id="g2137"
       transform="matrix(0.52623721,0.44727725,0.37106402,-0.47613777,222.32463,279.79726)"
       style="stroke:none"
       inkscape:export-xdpi="21"
       inkscape:export-ydpi="21">
      <path
         style="fill:#ffffff;stroke:none;stroke-width:0.26458332px;stroke-linecap:butt;stroke-linejoin:miter;stroke-opacity:1"
         d="m -206.27701,40.746138 c 0,0 5.87963,58.79629 -0.48997,98.973772 0,0 10.77932,-6.3696 20.08873,-0.48997"
         id="path2129"
         inkscape:connector-curvature="0" />
      <path
         style="fill:#ffffff;stroke:none;stroke-width:0.26458332px;stroke-linecap:butt;stroke-linejoin:miter;stroke-opacity:1"
         d="m -186.67825,139.75909 c 0,0 -9.30941,-78.885025 -1.4699,-97.993815 0,0 -6.85957,3.91975 -18.12886,0.48997"
         id="path2131"
         inkscape:connector-curvature="0" />
      <path
         inkscape:connector-curvature="0"
         id="path2133"
         d="m -206.27701,40.746138 c 0,0 5.87963,58.79629 -0.48997,98.973772 0,0 10.77932,-6.3696 20.08873,-0.48997"
         style="fill:#ffffff;stroke:none;stroke-width:0.26458332px;stroke-linecap:butt;stroke-linejoin:miter;stroke-opacity:1" />
      <path
         inkscape:connector-curvature="0"
         id="path2135"
         d="m -186.67825,139.75909 c 0,0 -9.30941,-78.885025 -1.4699,-97.993815 0,0 -6.85957,3.91975 -18.12886,0.48997"
         style="fill:#ffffff;stroke:none;stroke-width:0.26458332px;stroke-linecap:butt;stroke-linejoin:miter;stroke-opacity:1" />
    </g>
    <path
       style="fill:#ffffff;stroke:none;stroke-width:0.19798951px;stroke-linecap:butt;stroke-linejoin:miter;stroke-opacity:1"
       d="m 147.70454,169.66119 c 0,0 7.33811,-13.3532 38.6982,-9.51527 0,0 -15.83199,18.18736 -38.3953,11.4791 0,0 14.90806,-1.62161 30.62198,-8.85699 0,0 -5.4749,-1.66313 -30.92488,6.89316 z"
       id="path2139"
       inkscape:connector-curvature="0"
       inkscape:export-xdpi="21"
       inkscape:export-ydpi="21" />
  </g>
</svg>
